<?xml version="1.0" encoding="UTF-8" standalone="no"?><!DOCTYPE svg PUBLIC "-//W3C//DTD SVG 1.1//EN" "http://www.w3.org/Graphics/SVG/1.1/DTD/svg11.dtd"><svg width="100%" height="100%" viewBox="0 0 2917 2917" version="1.1" xmlns="http://www.w3.org/2000/svg" xmlns:xlink="http://www.w3.org/1999/xlink" xml:space="preserve" xmlns:serif="http://www.serif.com/" style="fill-rule:evenodd;clip-rule:evenodd;stroke-linejoin:round;stroke-miterlimit:2;"><g id="Filled_outline"><path d="M2425,1775.01l-966.667,833.333l-966.666,-833.333l-0,-1100l1933.33,-0l0,1100Z" style="fill:#e8e7dd;fill-rule:nonzero;"/><path d="M625,1708.34l833.333,700l0,200l-966.666,-833.333l133.333,-66.667Z" style="fill:#afad97;fill-rule:nonzero;"/><path d="M2291.67,1708.34l-833.334,700l0,200l966.667,-833.333l-133.333,-66.667Z" style="fill:#9b977e;fill-rule:nonzero;"/><path d="M491.667,675.007l-0,1100l133.333,-66.667l0,-900l1666.67,0l-0,900l133.333,66.667l-0,-1100l-1933.33,-0Z" style="fill:#cecdba;fill-rule:nonzero;"/><path d="M858.333,1375.01l-66.666,-0l-0,200c0.008,9.725 4.275,18.979 11.666,25.3l233.334,200l43.333,-50.6l-221.667,-190.034l0,-184.666Z" style="fill-rule:nonzero;"/><path d="M1758.33,1041.67l300,0l0,133.334l66.667,-0l0,-200l-366.667,-0l0,66.666Z" style="fill-rule:nonzero;"/><rect x="2058.33" y="1241.67" width="66.667" height="66.667"/><path d="M2425,641.673l-1933.33,0c-18.288,0 -33.334,15.046 -33.334,33.334l0,1100c-0.004,9.7 4.221,18.933 11.567,25.266l966.667,833.334c12.454,10.737 31.079,10.737 43.533,-0l966.667,-833.334c7.346,-6.333 11.571,-15.566 11.566,-25.266l0,-1100c0,-18.288 -15.045,-33.334 -33.333,-33.334Zm-1000,1893.93l-873.667,-753.167l69,-34.5l804.667,675.933l0,111.734Zm33.333,-170.8l-800,-672l0,-851.134l1600,0l0,851.134l-800,672Zm33.334,170.8l-0,-111.734l804.666,-675.933l69,34.5l-873.666,753.167Zm900,-814.534l-66.667,-33.333l0,-879.4c0,-18.287 -15.046,-33.333 -33.333,-33.333l-1666.67,-0c-18.287,-0 -33.333,15.046 -33.333,33.333l-0,879.4l-66.667,33.333l0,-1012.73l1866.67,0l-0,1012.73Z" style="fill-rule:nonzero;"/><g id="android-black-24dp"><g><g><rect x="978.992" y="841.673" width="1025.35" height="1025.35" style="fill:none;"/><path d="M1730.91,1246.69l78.61,-135.859c6.836,-13.244 1.709,-29.479 -11.108,-36.315c-12.389,-6.408 -27.77,-2.563 -35.46,9.399l-80.319,138.423c-122.187,-51.695 -259.755,-51.695 -381.943,-0l-80.319,-138.423c-8.117,-12.389 -24.779,-16.234 -37.169,-8.544c-11.962,7.69 -15.807,23.07 -9.399,35.46l78.61,135.859c-132.441,75.619 -218.741,211.905 -230.703,363.999l939.904,-0c-11.963,-152.094 -98.263,-288.38 -230.704,-363.999Zm-452.863,246.511c-29.479,-0 -53.404,-23.925 -53.404,-53.404c0,-29.479 23.925,-53.403 53.404,-53.403c29.479,-0 53.404,23.924 53.404,53.403c-0,29.479 -23.925,53.404 -53.404,53.404Zm427.229,-0c-29.479,-0 -53.403,-23.925 -53.403,-53.404c-0,-29.479 23.924,-53.403 53.403,-53.403c29.479,-0 53.404,23.924 53.404,53.403c-0,29.479 -23.925,53.404 -53.404,53.404Z" style="fill:#00de7a;"/></g></g></g></g></svg>