<?xml version="1.0" encoding="UTF-8" standalone="no"?><!DOCTYPE svg PUBLIC "-//W3C//DTD SVG 1.1//EN" "http://www.w3.org/Graphics/SVG/1.1/DTD/svg11.dtd"><svg width="100%" height="100%" viewBox="0 0 6400 2134" version="1.1" xmlns="http://www.w3.org/2000/svg" xmlns:xlink="http://www.w3.org/1999/xlink" xml:space="preserve" xmlns:serif="http://www.serif.com/" style="fill-rule:evenodd;clip-rule:evenodd;stroke-linejoin:round;stroke-miterlimit:2;"><g id="Filled_outline"><path d="M2033.33,1200l-966.666,833.333l-966.667,-833.333l0,-1100l1933.33,0l0,1100Z" style="fill:#e8e7dd;fill-rule:nonzero;"/><path d="M233.333,1133.33l833.334,700l-0,200l-966.667,-833.333l133.333,-66.667Z" style="fill:#afad97;fill-rule:nonzero;"/><path d="M1900,1133.33l-833.333,700l-0,200l966.666,-833.333l-133.333,-66.667Z" style="fill:#9b977e;fill-rule:nonzero;"/><path d="M100,100l0,1100l133.333,-66.667l0,-900l1666.67,0l0,900l133.333,66.667l0,-1100l-1933.33,0Z" style="fill:#cecdba;fill-rule:nonzero;"/><path d="M466.667,800l-66.667,0l0,200c0.008,9.725 4.275,18.979 11.667,25.3l233.333,200l43.333,-50.6l-221.666,-190.033l-0,-184.667Z" style="fill-rule:nonzero;"/><path d="M1366.67,466.667l300,-0l-0,133.333l66.666,0l0,-200l-366.666,0l-0,66.667Z" style="fill-rule:nonzero;"/><rect x="1666.67" y="666.667" width="66.667" height="66.667"/><path d="M2033.33,66.667l-1933.33,-0c-18.287,-0 -33.333,15.046 -33.333,33.333l-0,1100c-0.004,9.7 4.221,18.933 11.566,25.267l966.667,833.333c12.454,10.738 31.079,10.738 43.533,0l966.667,-833.333c7.346,-6.334 11.571,-15.567 11.567,-25.267l-0,-1100c-0,-18.287 -15.046,-33.333 -33.334,-33.333Zm-1000,1893.93l-873.666,-753.167l69,-34.5l804.666,675.934l0,111.733Zm33.334,-170.8l-800,-672l-0,-851.133l1600,-0l-0,851.133l-800,672Zm33.333,170.8l0,-111.733l804.667,-675.934l69,34.5l-873.667,753.167Zm900,-814.533l-66.667,-33.334l0,-879.4c0,-18.287 -15.045,-33.333 -33.333,-33.333l-1666.67,0c-18.287,0 -33.333,15.046 -33.333,33.333l0,879.4l-66.667,33.334l0,-1012.73l1866.67,0l0,1012.73Z" style="fill-rule:nonzero;"/><g id="android-black-24dp"><g><g><rect x="587.325" y="266.667" width="1025.35" height="1025.35" style="fill:none;"/><path d="M1339.25,671.68l78.611,-135.859c6.835,-13.244 1.708,-29.479 -11.108,-36.314c-12.39,-6.409 -27.77,-2.564 -35.46,9.399l-80.32,138.422c-122.187,-51.695 -259.755,-51.695 -381.942,-0l-80.32,-138.422c-8.117,-12.39 -24.779,-16.235 -37.168,-8.545c-11.963,7.69 -15.808,23.07 -9.4,35.46l78.611,135.859c-132.441,75.619 -218.742,211.906 -230.704,363.999l939.904,0c-11.962,-152.093 -98.263,-288.38 -230.704,-363.999Zm-452.863,246.511c-29.478,0 -53.403,-23.925 -53.403,-53.403c-0,-29.479 23.925,-53.404 53.403,-53.404c29.479,-0 53.404,23.925 53.404,53.404c0,29.478 -23.925,53.403 -53.404,53.403Zm427.23,0c-29.479,0 -53.404,-23.925 -53.404,-53.403c-0,-29.479 23.925,-53.404 53.404,-53.404c29.478,-0 53.403,23.925 53.403,53.404c0,29.478 -23.925,53.403 -53.403,53.403Z" style="fill:#00de7a;"/></g></g></g><g><path d="M3225.21,1428.12l-635.416,0l-142.709,396.875l-206.25,0l579.167,-1516.67l175,0l580.208,1516.67l-205.208,0l-144.792,-396.875Zm-575,-163.542l515.625,0l-258.333,-709.375l-257.292,709.375Z" style="fill-rule:nonzero;"/><path d="M3779.38,1825l-0,-1516.67l495.833,0c164.584,0 288.368,34.028 371.354,102.084c82.986,68.055 124.48,168.75 124.48,302.083c-0,70.833 -20.139,133.507 -60.417,188.021c-40.278,54.514 -95.139,96.701 -164.583,126.562c81.944,22.917 146.701,66.493 194.27,130.73c47.57,64.236 71.355,140.798 71.355,229.687c-0,136.111 -44.098,243.056 -132.292,320.833c-88.195,77.778 -212.847,116.667 -373.958,116.667l-526.042,0Zm200,-709.375l-0,545.833l330.208,0c93.056,0 166.493,-24.132 220.313,-72.395c53.819,-48.264 80.729,-114.757 80.729,-199.48c-0,-182.639 -99.306,-273.958 -297.917,-273.958l-333.333,0Zm-0,-160.417l302.083,0c87.5,0 157.465,-21.921 209.896,-65.763c52.431,-43.842 78.646,-103.345 78.646,-178.507c-0,-83.518 -24.306,-144.241 -72.917,-182.17c-48.611,-37.929 -122.569,-56.893 -221.875,-56.893l-295.833,0l-0,483.333Z" style="fill-rule:nonzero;"/><path d="M5308.55,1661.46l718.75,0l-0,163.542l-919.792,0l-0,-1516.67l201.042,0l-0,1353.12Z" style="fill-rule:nonzero;"/></g></g></svg>