<?xml version="1.0" encoding="UTF-8" standalone="no"?>
<!DOCTYPE svg PUBLIC "-//W3C//DTD SVG 1.1//EN" "http://www.w3.org/Graphics/SVG/1.1/DTD/svg11.dtd">
<svg width="100%" height="100%" viewBox="0 0 512 512" version="1.1" xmlns="http://www.w3.org/2000/svg" xmlns:xlink="http://www.w3.org/1999/xlink" xml:space="preserve" xmlns:serif="http://www.serif.com/" style="fill-rule:evenodd;clip-rule:evenodd;stroke-linejoin:round;stroke-miterlimit:2;">
    <g id="Filled_outline">
        <path d="M488,288L256,488L24,288L24,24L488,24L488,288Z" style="fill:rgb(232,231,221);fill-rule:nonzero;"/>
        <path d="M56,272L256,440L256,488L24,288L56,272Z" style="fill:rgb(175,173,151);fill-rule:nonzero;"/>
        <path d="M456,272L256,440L256,488L488,288L456,272Z" style="fill:rgb(155,151,126);fill-rule:nonzero;"/>
        <path d="M24,24L24,288L56,272L56,56L456,56L456,272L488,288L488,24L24,24Z" style="fill:rgb(206,205,186);fill-rule:nonzero;"/>
        <path d="M112,192L96,192L96,240C96.002,242.334 97.026,244.555 98.8,246.072L154.8,294.072L165.2,281.928L112,236.32L112,192Z" style="fill-rule:nonzero;"/>
        <path d="M328,112L400,112L400,144L416,144L416,96L328,96L328,112Z" style="fill-rule:nonzero;"/>
        <rect x="400" y="160" width="16" height="16" style="fill-rule:nonzero;"/>
        <path d="M488,16L24,16C19.611,16 16,19.611 16,24L16,288C15.999,290.328 17.013,292.544 18.776,294.064L250.776,494.064C253.765,496.641 258.235,496.641 261.224,494.064L493.224,294.064C494.987,292.544 496.001,290.328 496,288L496,24C496,19.611 492.389,16 488,16ZM248,470.544L38.32,289.784L54.88,281.504L248,443.728L248,470.544ZM256,429.552L64,268.272L64,64L448,64L448,268.272L256,429.552ZM264,470.544L264,443.728L457.12,281.504L473.68,289.784L264,470.544ZM480,275.056L464,267.056L464,56C464,51.611 460.389,48 456,48L56,48C51.611,48 48,51.611 48,56L48,267.056L32,275.056L32,32L480,32L480,275.056Z" style="fill-rule:nonzero;"/>
        <g id="android-black-24dp" transform="matrix(10.2535,0,0,10.2535,264,187.042)">
            <g transform="matrix(1,0,0,1,-12,-12)">
                <g>
                    <rect x="0" y="0" width="24" height="24" style="fill:none;"/>
                    <path d="M17.6,9.48L19.44,6.3C19.6,5.99 19.48,5.61 19.18,5.45C18.89,5.3 18.53,5.39 18.35,5.67L16.47,8.91C13.61,7.7 10.39,7.7 7.53,8.91L5.65,5.67C5.46,5.38 5.07,5.29 4.78,5.47C4.5,5.65 4.41,6.01 4.56,6.3L6.4,9.48C3.3,11.25 1.28,14.44 1,18L23,18C22.72,14.44 20.7,11.25 17.6,9.48ZM7,15.25C6.31,15.25 5.75,14.69 5.75,14C5.75,13.31 6.31,12.75 7,12.75C7.69,12.75 8.25,13.31 8.25,14C8.25,14.69 7.69,15.25 7,15.25ZM17,15.25C16.31,15.25 15.75,14.69 15.75,14C15.75,13.31 16.31,12.75 17,12.75C17.69,12.75 18.25,13.31 18.25,14C18.25,14.69 17.69,15.25 17,15.25Z" style="fill: #00DE7A;"/>
                </g>
            </g>
        </g>
    </g>
</svg>
